<svg xmlns="http://www.w3.org/2000/svg" width="1024" height="1024" viewBox="0 0 16 16"><path fill="currentColor" d="M8.894 12.16v-.002zm.022.567l-.001-.011zm-.013-.285v-.008zM15 0H1C.45 0 0 .45 0 1v14c0 .55.45 1 1 1h14c.55 0 1-.45 1-1V1c0-.55-.45-1-1-1M3 3.5a.5.5 0 0 1 1 0v1a.5.5 0 0 1-1 0zM15 15H9.14a20 20 0 0 1-.209-1.994v.005a8.55 8.55 0 0 1-6.595-2.09a.563.563 0 0 1 .744-.844a7.43 7.43 0 0 0 5.807 1.806a32 32 0 0 1 .11-3.334A.5.5 0 0 0 8.499 8H7.012c.022-.541.079-1.466.234-2.503c.295-1.981.812-3.528 1.502-4.497h6.251v14z"/><path fill="currentColor" d="M12.5 5a.5.5 0 0 1-.5-.5v-1a.5.5 0 0 1 1 0v1a.5.5 0 0 1-.5.5m-4.077 6.925l.037-.002zm-.219.009l.05-.002zm5.509-1.806a.563.563 0 0 0-.794-.05a7.43 7.43 0 0 1-4.032 1.806q.01.548.043 1.127a8.55 8.55 0 0 0 4.733-2.09a.563.563 0 0 0 .05-.794zM8.68 13.035l-.183.013z"/></svg>